# xmcd CD database file
#
# Track frame offsets:
#	150
#	41842
#	70352
#	78560
#	116075
#	135442
#	146490
#	172520
#
# Disc length: 2869 seconds
#
# Revision: 0
# Processed by: cddbd v1.5.1PL0 Copyright (c) Steve Scherf et al.
# Submitted via: CDex 1.51
#
DISCID=690b3308
DTITLE=ヨースタイン・ゴルデル - ソフィーの世界　後編２
DYEAR=1900
DGENRE=Audio Drama
TTITLE0=ダーウィン
TTITLE1=フロイト
TTITLE2=アルベルトの秘密計画
TTITLE3=実在主義カフェ
TTITLE4=脱出
TTITLE5=少佐の帰還
TTITLE6=永遠の国へ
TTITLE7=出会いと別れ
EXTD=
EXTT0=
EXTT1=
EXTT2=
EXTT3=
EXTT4=
EXTT5=
EXTT6=
EXTT7=
PLAYORDER=
